# xmcd
#
# Track frame offsets: 
#        150
#        17698
#        36221
#        53186
#        71683
#        95961
#        109776
#        125678
#        142773
#        165318
#
# Disc length: 2463 seconds
#
# Revision: 0
# Processed by: cddbd v1.5.2PL0 Copyright (c) Steve Scherf et al.
# Submitted via: ExactAudioCopy v0.99pb2
#
DISCID=86099d0a
DTITLE=Astrid Williamson - Here Comes the Vikings
DYEAR=2009
DGENRE=Indie
TTITLE0=Storm
TTITLE1=Sing The Body Electric
TTITLE2=Shut Your Mouth
TTITLE3=How You Take My Breath Away
TTITLE4=Crashing Minis
TTITLE5=Falling Down
TTITLE6=Pinned
TTITLE7=Slake
TTITLE8=Eve
TTITLE9=The Stars Are Beautiful
EXTD=
EXTT0=
EXTT1=
EXTT2=
EXTT3=
EXTT4=
EXTT5=
EXTT6=
EXTT7=
EXTT8=
EXTT9=
PLAYORDER=
